<?xml version="1.0" encoding="UTF-8"?>
<svg version="1.1" xmlns="http://www.w3.org/2000/svg" width="286" height="265">
<path d="M0 0 C94.38 0 188.76 0 286 0 C286 87.45 286 174.9 286 265 C191.62 265 97.24 265 0 265 C0 177.55 0 90.1 0 0 Z " fill="#FDFDFD" transform="translate(0,0)"/>
<path d="M0 0 C7.5058284 3.94842815 16.69993167 9.14869912 21.25 16.5 C20.97117131 19.56711564 20.00752863 20.86370706 18.25 23.5 C17.86500109 25.15549531 17.52206865 26.8222433 17.25 28.5 C18.13300781 28.41878906 19.01601562 28.33757813 19.92578125 28.25390625 C29.38096167 27.75626518 34.97421551 29.43273564 42.25 35.5 C46.16072536 39.03378797 46.16072536 39.03378797 46.8125 42.4375 C46.04168716 46.6341477 44.61242875 47.90812784 41.25 50.5 C35.03686716 53.34768588 30.03038535 53.8905991 23.25 53.6875 C22.37988281 53.67396484 21.50976562 53.66042969 20.61328125 53.64648438 C18.49191373 53.61151678 16.37087026 53.5577253 14.25 53.5 C13.37957757 55.38842514 12.52924526 57.28611902 11.6875 59.1875 C11.21183594 60.24324219 10.73617187 61.29898438 10.24609375 62.38671875 C9.17375401 65.73830609 9.29491387 67.18496268 10.25 70.5 C10.5625 74.125 10.5625 74.125 10.25 77.5 C6.30690836 81.88121294 0.35250114 81.63780756 -5.1875 81.96484375 C-7.02441406 82.08182617 -7.02441406 82.08182617 -8.8984375 82.20117188 C-11.46591 82.35870949 -14.03362419 82.51235638 -16.6015625 82.66210938 C-17.82617188 82.74138672 -19.05078125 82.82066406 -20.3125 82.90234375 C-21.42753906 82.96929443 -22.54257813 83.03624512 -23.69140625 83.10522461 C-26.71053724 83.49490651 -28.97089343 84.30353819 -31.75 85.5 C-35.19448613 86.01029424 -37.57935567 86.14326315 -40.68359375 84.4375 C-44.47838632 81.53420756 -46.61323372 78.8480906 -47.484375 74 C-48.06773966 68.50950906 -48.45576988 63.01294339 -48.75 57.5 C-51.12374861 57.16574265 -51.12374861 57.16574265 -53.75 57.5 C-56.09110187 59.79802476 -56.71260163 61.20098472 -57.12231445 64.47680664 C-57.1193335 65.60981201 -57.11635254 66.74281738 -57.11328125 67.91015625 C-57.11263672 69.14701172 -57.11199219 70.38386719 -57.11132812 71.65820312 C-57.09521484 72.94662109 -57.07910156 74.23503906 -57.0625 75.5625 C-57.06733398 77.50092773 -57.06733398 77.50092773 -57.07226562 79.47851562 C-57.32403732 86.37497127 -57.32403732 86.37497127 -54.75 92.5 C-45.46007377 93.89537458 -35.85441592 92.25179764 -26.6875 90.6875 C-25.71272705 90.52241943 -24.7379541 90.35733887 -23.73364258 90.18725586 C-19.58074734 89.42557541 -15.71342851 88.62662671 -11.8515625 86.890625 C-7.66389712 85.01303196 -4.25403923 84.74238897 0.25 85.5 C3.125 87.25 3.125 87.25 6.25 89.5 C9.09417674 90.5898626 11.95728286 91.54890288 14.859375 92.47265625 C17.25 93.5 17.25 93.5 19.25 96.5 C19.79942687 100.73843588 19.86092965 102.70652487 17.21630859 106.14135742 C13.65542973 108.972769 10.74026678 109.4861188 6.3515625 109.86328125 C5.59837738 109.94499069 4.84519226 110.02670013 4.06918335 110.11088562 C1.67273591 110.36538508 -0.72549379 110.58890307 -3.125 110.8125 C-4.72937056 110.98048589 -6.33354153 111.15038957 -7.9375 111.32226562 C-14.55666839 112.01049105 -21.08836745 112.5973732 -27.75 112.5 C-27.26789063 113.04269531 -26.78578125 113.58539063 -26.2890625 114.14453125 C-25.65742188 114.85996094 -25.02578125 115.57539063 -24.375 116.3125 C-23.74851562 117.02019531 -23.12203125 117.72789062 -22.4765625 118.45703125 C-18.75 122.86651584 -18.75 122.86651584 -18.75 126.5 C-18.01136719 126.36722656 -17.27273437 126.23445312 -16.51171875 126.09765625 C-11.26354539 125.18406063 -6.13404817 124.42225269 -0.8125 124.125 C3.87192761 123.76465941 5.61707511 122.48086145 9.25 119.5 C16.66682536 117.35795658 22.62055541 118.88393931 29.25 122.5 C38.69858871 128.39717742 38.69858871 128.39717742 40.25 131.5 C40.55859375 133.5234375 40.55859375 133.5234375 40.6875 135.875 C40.74808594 136.64585937 40.80867187 137.41671875 40.87109375 138.2109375 C40.08597275 141.10452809 38.68038983 142.08018655 36.19465637 143.64993286 C32.31683166 145.34504538 28.20815971 145.10387588 24.0390625 145.109375 C23.07092621 145.12591125 22.10278992 145.14244751 21.10531616 145.15948486 C18.02847898 145.20787345 14.95213574 145.2293158 11.875 145.25 C9.78252736 145.27816728 7.69007763 145.30809576 5.59765625 145.33984375 C0.48181151 145.41363022 -4.6337605 145.46326088 -9.75 145.5 C-9.75 146.16 -9.75 146.82 -9.75 147.5 C-8.85812988 147.9007373 -8.85812988 147.9007373 -7.94824219 148.30957031 C-5.71552255 149.51867082 -4.32502476 150.72121708 -2.578125 152.546875 C-2.000625 153.14137451 -1.423125 153.73587402 -0.828125 154.34838867 C-0.22484375 154.97592041 0.3784375 155.60345215 1 156.25 C2.26201821 157.53610129 3.52760269 158.81871361 4.796875 160.09765625 C5.36245117 160.67265869 5.92802734 161.24766113 6.51074219 161.84008789 C8.87829949 164.0996362 11.39021226 166.08601759 14.0703125 167.9609375 C17.16581863 170.1466533 20.1419706 172.4764783 23.125 174.8125 C24.04152344 175.52913818 24.04152344 175.52913818 24.9765625 176.26025391 C28.5334277 179.06755536 31.93083258 181.97337389 35.25 185.0625 C39.66428224 189.14003766 44.38569978 192.58403948 49.34179688 195.96313477 C53.03139452 198.50526754 56.2854699 201.13020643 59.25 204.5 C59.3125 207.1875 59.3125 207.1875 58.25 209.5 C54.63554261 211.98493946 50.43591077 212.17181132 46.1875 212.625 C45.42888672 212.7084668 44.67027344 212.79193359 43.88867188 212.87792969 C33.7720504 213.93084909 23.53887858 214.77545759 14.25 209.9375 C4.39546765 201.93069246 -1.73183712 192.73329865 -8.24804688 181.97314453 C-10.60930336 178.08505477 -13.02490884 174.23135345 -15.4375 170.375 C-15.8595874 169.69429443 -16.2816748 169.01358887 -16.71655273 168.31225586 C-18.51595741 165.24159057 -18.51595741 165.24159057 -20.75 162.5 C-20.74830811 164.45836792 -20.74830811 164.45836792 -20.74658203 166.45629883 C-20.75027998 171.34523932 -20.79331731 176.2332081 -20.84765625 181.12182617 C-20.86571609 183.22918396 -20.87340312 185.33665918 -20.87011719 187.4440918 C-20.84885069 209.89619913 -20.84885069 209.89619913 -27.75 218.5 C-28.17490723 219.07621094 -28.59981445 219.65242187 -29.03759766 220.24609375 C-31.08279102 222.67759226 -32.65779995 223.47887082 -35.75 224.1875 C-40.80281563 223.02956308 -43.09823924 218.51861257 -45.76953125 214.34375 C-50.24895049 205.98997469 -52.14682436 199.17888027 -50.75 189.5 C-50.41943604 188.74831543 -50.08887207 187.99663086 -49.74829102 187.22216797 C-48.56590322 183.99799973 -48.42991096 181.31675016 -48.3359375 177.88671875 C-48.29726562 176.63955078 -48.25859375 175.39238281 -48.21875 174.10742188 C-48.1878125 172.81384766 -48.156875 171.52027344 -48.125 170.1875 C-48.08632812 168.87458984 -48.04765625 167.56167969 -48.0078125 166.20898438 C-47.91366883 162.97279563 -47.82803648 159.73661065 -47.75 156.5 C-51.47858415 160.18078179 -55.07765847 163.95723741 -58.625 167.8125 C-59.41825684 168.67125732 -59.41825684 168.67125732 -60.22753906 169.54736328 C-63.04584153 172.6084441 -65.80607911 175.70312541 -68.5 178.875 C-74.04164792 185.24455676 -80.49361092 190.21133707 -87.45703125 194.94140625 C-89.19258609 196.12111048 -90.88814682 197.35993316 -92.5625 198.625 C-102.68375617 204.5786801 -114.92920319 208.50176244 -126.75 207.5 C-129.75 206 -129.75 206 -131.75 204.5 C-130.58546385 201.00639156 -129.96230867 200.73893615 -126.9375 198.875 C-108.89538896 187.24596161 -89.86225561 171.78582083 -79.75 152.5 C-80.85021484 152.73203125 -80.85021484 152.73203125 -81.97265625 152.96875 C-95.82035613 155.61753648 -105.9235092 148.51287194 -117.125 141.25 C-117.78588623 140.82605957 -118.44677246 140.40211914 -119.12768555 139.96533203 C-120.72640486 138.8918545 -122.24711548 137.70399152 -123.75 136.5 C-123.75 135.51 -123.75 134.52 -123.75 133.5 C-72.01608373 128.9308534 -72.01608373 128.9308534 -48.75 128.5 C-48.75 123.88 -48.75 119.26 -48.75 114.5 C-51.4415625 114.7165625 -51.4415625 114.7165625 -54.1875 114.9375 C-55.28191406 115.02128906 -56.37632812 115.10507813 -57.50390625 115.19140625 C-60.651663 115.4454941 -60.651663 115.4454941 -63.33984375 115.96484375 C-67.72882502 116.75260962 -69.16120114 116.85982153 -73.125 114.4375 C-81.71338214 104.82669142 -80.9995295 91.18174509 -81.32080078 78.92358398 C-81.48699602 73.86032722 -81.66967105 69.19392532 -83.75 64.5 C-86.04700368 62.75117878 -87.90109418 61.56090786 -90.4375 60.3125 C-91.64973958 59.67317708 -92.86197917 59.03385417 -94.07421875 58.39453125 C-94.6784668 58.08588135 -95.28271484 57.77723145 -95.90527344 57.45922852 C-110.24991995 50.00024014 -110.24991995 50.00024014 -111.75 45.5 C-108.50736435 43.60958378 -105.83480582 43.1446132 -102.109375 42.8671875 C-101.03945312 42.78339844 -99.96953125 42.69960938 -98.8671875 42.61328125 C-97.75601563 42.53464844 -96.64484375 42.45601562 -95.5 42.375 C-94.37335938 42.28863281 -93.24671875 42.20226563 -92.0859375 42.11328125 C-89.30776513 41.90138675 -86.52924426 41.69724897 -83.75 41.5 C-83.29290984 34.09986788 -84.69599391 31.2907615 -89.5703125 25.64453125 C-92.19781058 23.05941217 -94.29559424 21.70904202 -97.75 20.5 C-94.03571429 16.61688312 -94.03571429 16.61688312 -90.90234375 16.33203125 C-79.91255282 16.23511951 -70.01051981 19.39142882 -60.4375 24.80859375 C-58.09077241 27.16075357 -58.18764297 28.85402175 -58.0625 32.125 C-58.20369552 35.62408809 -58.20369552 35.62408809 -56.75 38.5 C-54.75041636 38.54080783 -52.74954746 38.54254356 -50.75 38.5 C-50.69432565 34.2501911 -50.69678777 30.00497472 -50.7421875 25.75537109 C-50.74744561 24.23742071 -50.73407758 22.71930404 -50.703125 21.20166016 C-50.12428867 12.08639203 -50.12428867 12.08639203 -53.8203125 4.31640625 C-56.12277334 3.04247416 -58.20608209 2.15268197 -60.75 1.5 C-60.75 0.84 -60.75 0.18 -60.75 -0.5 C-56.13535497 -3.1565961 -51.9513348 -2.98439912 -46.75 -2.5 C-39.43147236 -0.51531454 -28.17094489 4.07905511 -22.75 9.5 C-22.73323822 11.42873499 -22.78731169 13.35816892 -22.87109375 15.28515625 C-22.91943359 16.45498047 -22.96777344 17.62480469 -23.01757812 18.83007812 C-23.07365234 20.06177734 -23.12972656 21.29347656 -23.1875 22.5625 C-23.23970703 23.79806641 -23.29191406 25.03363281 -23.34570312 26.30664062 C-23.47586333 29.37132191 -23.61084346 32.43571613 -23.75 35.5 C-20.12 35.17 -16.49 34.84 -12.75 34.5 C-12.58760978 30.31093367 -12.46887156 26.12819465 -12.375 21.9375 C-12.32472656 20.75607422 -12.27445312 19.57464844 -12.22265625 18.35742188 C-12.0107538 10.70966318 -12.0107538 10.70966318 -15.7734375 4.34765625 C-16.32692871 3.85402588 -16.88041992 3.36039551 -17.45068359 2.85180664 C-18.75 1.5 -18.75 1.5 -18.75 -1.5 C-12.07641764 -5.04534063 -6.40476595 -3.01400751 0 0 Z " fill="#040303" transform="translate(202.75,19.5)"/>
<path d="M0 0 C8.77634138 0.02969997 14.21934349 1.41053991 21 7 C21.62648438 7.47824219 22.25296875 7.95648438 22.8984375 8.44921875 C27.84637272 12.39244224 32.93323447 17.02326016 34.6171875 23.30078125 C34.82816873 25.8114579 34.75989423 27.59441767 34 30 C32.41523745 31.78232103 30.7352437 33.07329947 28.8125 34.48046875 C25.73455332 37.0609025 24.4957855 40.35056037 23 44 C22.7009375 44.62777344 22.401875 45.25554687 22.09375 45.90234375 C20.28349032 50.00057053 19.93644779 53.08029963 20.1875 57.5625 C20.28041526 61.50320006 20.03378473 63.8263087 17.625 67 C12.44350727 72.00323037 5.87680998 72.70476943 -0.98828125 73.81640625 C-2.32898682 74.04807495 -2.32898682 74.04807495 -3.69677734 74.28442383 C-5.50350089 74.59133829 -7.31542193 74.86926817 -9.13134766 75.1159668 C-13.77125228 75.76206173 -13.77125228 75.76206173 -17.22705078 78.60449219 C-18.18855211 80.70186534 -18.18855211 80.70186534 -19 84 C-21.19004525 90.02262443 -21.19004525 90.02262443 -24 92 C-28.06349424 92.43271819 -29.97237345 91.7281461 -33.125 89.1875 C-33.78757812 88.66542969 -34.45015625 88.14335937 -35.1328125 87.60546875 C-44.98304068 79.13592109 -45.42074541 67.90337542 -46.9296875 55.6171875 C-47.16365234 53.71259766 -47.16365234 53.71259766 -47.40234375 51.76953125 C-47.71827065 49.16639806 -48.02552071 46.56219759 -48.32421875 43.95703125 C-49.63958584 33.4447886 -51.2659544 24.71344227 -59.4140625 17.47265625 C-61 16 -61 16 -63 13 C-63 11.68 -63 10.36 -63 9 C-61.7625 9.165 -60.525 9.33 -59.25 9.5 C-46.38443035 10.82614333 -28.84641603 10.92320802 -17 5 C-13.80617551 4.5971093 -10.61463346 4.23125478 -7.41015625 3.92578125 C-5.59253973 3.71673763 -3.79263116 3.365927 -2 3 C-1.34 2.01 -0.68 1.02 0 0 Z " fill="#040304" transform="translate(77,69)"/>
<path d="M0 0 C2.3125 0.375 2.3125 0.375 3.3125 1.375 C3.47878938 2.79088322 3.58816848 4.21356357 3.671875 5.63671875 C3.73632812 6.50876953 3.80078125 7.38082031 3.8671875 8.27929688 C3.99595921 10.11429379 4.11086888 11.95032356 4.2109375 13.78710938 C4.7008529 19.97002317 5.77947339 23.07140572 10.3125 27.375 C13.34282442 28.89016221 15.96364962 28.54528053 19.3125 28.375 C20.11042969 28.05402344 20.90835938 27.73304687 21.73046875 27.40234375 C29.80870499 24.18815898 39.77557202 25.25285 48.3125 25.375 C47.8175 26.86 47.8175 26.86 47.3125 28.375 C47.9725 28.705 48.6325 29.035 49.3125 29.375 C48.72082031 29.49617188 48.12914062 29.61734375 47.51953125 29.7421875 C46.72933594 29.90976563 45.93914062 30.07734375 45.125 30.25 C43.95904297 30.49363281 43.95904297 30.49363281 42.76953125 30.7421875 C40.29350981 31.31839616 40.29350981 31.31839616 37.96875 32.34765625 C26.16633776 36.91241275 8.88262986 39.61261474 -3.6875 37.375 C-7.81670951 33.30168092 -7.10915695 28.78435596 -7.14648438 23.31445312 C-7.13939453 22.03505859 -7.13230469 20.75566406 -7.125 19.4375 C-7.14498047 18.16197266 -7.16496094 16.88644531 -7.18554688 15.57226562 C-7.18490234 14.34314453 -7.18425781 13.11402344 -7.18359375 11.84765625 C-7.18637329 10.16555054 -7.18637329 10.16555054 -7.18920898 8.44946289 C-6.45979357 3.97961945 -4.69637091 0.65530757 0 0 Z " fill="#EFF3F3" transform="translate(151.6875,75.625)"/>
<path d="M0 0 C0.99 0.33 1.98 0.66 3 1 C3.25645895 7.73204732 2.28162548 13.9013607 1 20.5 C0.71382812 22.01980469 0.71382812 22.01980469 0.421875 23.5703125 C-0.04564611 26.04817439 -0.51973328 28.52458268 -1 31 C-6.04750301 32.82692169 -9.6908114 33.26995874 -15 33 C-18.58320312 29.41679688 -17.17905312 18.50578486 -17.25 13.5625 C-17.2713501 12.7569165 -17.2927002 11.95133301 -17.31469727 11.12133789 C-17.328125 8.81640625 -17.328125 8.81640625 -17 5 C-13.73330327 2.82220218 -11.7749839 2.49237313 -7.9375 1.9375 C-3.83053342 1.40937789 -3.83053342 1.40937789 0 0 Z " fill="#F8F8F5" transform="translate(72,91)"/>
<path d="M0 0 C2.97 0 5.94 0 9 0 C9.05389087 1.95803507 9.09274217 3.91648909 9.125 5.875 C9.14820313 6.96554688 9.17140625 8.05609375 9.1953125 9.1796875 C9 12 9 12 7 14 C4.8359375 14.1953125 4.8359375 14.1953125 2.375 14.125 C1.55773437 14.10695313 0.74046875 14.08890625 -0.1015625 14.0703125 C-0.72804687 14.04710938 -1.35453125 14.02390625 -2 14 C-2.05437607 12.41705218 -2.09296271 10.83355744 -2.125 9.25 C-2.14820313 8.36828125 -2.17140625 7.4865625 -2.1953125 6.578125 C-2 4 -2 4 0 0 Z " fill="#E7F0F4" transform="translate(179,72)"/>
</svg>
